<?xml version="1.0" encoding="UTF-8" standalone="no"?>
<!DOCTYPE svg PUBLIC "-//W3C//DTD SVG 20010904//EN"
              "http://www.w3.org/TR/2001/REC-SVG-20010904/DTD/svg10.dtd">

<svg xmlns="http://www.w3.org/2000/svg"
     width="1.07667in" height="1.7in"
     viewBox="0 0 323 510">
  <path id="Selección #3"
        fill="none" stroke="black" stroke-width="1"
        d="M 152.00,10.14
           C 147.22,11.72 138.79,16.78 136.40,21.29
             134.54,24.81 135.94,27.50 132.90,33.00
             132.90,33.00 113.95,64.00 113.95,64.00
             113.95,64.00 95.31,95.00 95.31,95.00
             95.31,95.00 87.05,112.00 87.05,112.00
             87.05,112.00 76.45,128.00 76.45,128.00
             76.45,128.00 68.69,143.00 68.69,143.00
             68.69,143.00 58.87,159.00 58.87,159.00
             58.87,159.00 49.24,179.00 49.24,179.00
             49.24,179.00 32.17,205.00 32.17,205.00
             32.17,205.00 22.99,224.00 22.99,224.00
             20.36,228.51 11.32,242.20 10.42,246.00
             8.86,252.51 13.68,266.15 19.32,269.75
             24.41,273.00 35.95,273.99 42.00,274.00
             42.00,274.00 84.00,274.00 84.00,274.00
             87.19,274.01 89.95,273.84 93.00,274.99
             96.20,276.19 103.23,280.36 105.07,283.18
             106.85,285.93 106.96,289.83 107.00,293.00
             107.00,293.00 107.00,317.00 107.00,317.00
             107.00,317.00 107.00,456.00 107.00,456.00
             107.01,461.53 108.69,475.30 111.16,480.00
             115.15,487.61 126.67,492.89 135.00,493.00
             135.00,493.00 165.00,493.00 165.00,493.00
             165.00,493.00 189.00,490.87 189.00,490.87
             192.71,490.35 196.87,490.20 199.83,487.69
             205.47,482.90 206.97,475.00 207.00,468.00
             207.00,468.00 208.00,448.00 208.00,448.00
             208.00,448.00 208.00,436.00 208.00,436.00
             208.00,436.00 209.00,421.00 209.00,421.00
             209.00,421.00 208.00,405.00 208.00,405.00
             208.00,405.00 208.00,369.00 208.00,369.00
             208.00,369.00 207.00,353.00 207.00,353.00
             207.00,353.00 207.00,302.00 207.00,302.00
             207.01,293.35 209.40,281.83 217.09,276.60
             219.89,274.69 229.39,274.05 233.00,274.00
             233.00,274.00 275.00,274.00 275.00,274.00
             292.65,273.97 309.68,264.08 303.90,244.00
             302.72,239.91 294.04,224.63 291.42,220.00
             291.42,220.00 271.42,184.00 271.42,184.00
             271.42,184.00 245.57,138.00 245.57,138.00
             245.57,138.00 200.00,61.00 200.00,61.00
             200.00,61.00 183.20,32.00 183.20,32.00
             180.40,27.31 176.96,20.86 172.83,17.30
             169.69,14.59 156.14,10.06 152.00,10.14 Z" />
</svg>
